<svg
  xmlns="http://www.w3.org/2000/svg"
  x="0px"
  y="0px"
  width="64"
  height="64"
  viewBox="0 0 224 224"
  style="fill: #000000"
>
  <g
    fill="none"
    fill-rule="nonzero"
    stroke="none"
    stroke-width="1"
    stroke-linecap="butt"
    stroke-linejoin="miter"
    stroke-miterlimit="10"
    stroke-dasharray=""
    stroke-dashoffset="0"
    font-family="none"
    font-weight="none"
    font-size="none"
    text-anchor="none"
    style="mix-blend-mode: normal"
  >
    <path d="M0,224v-224h224v224z" fill="none"></path>
    <g fill="#ffffff">
      <g id="climbing-rops">
        <path
          d="M94.5,21c-13.45312,0 -24.5,11.04688 -24.5,24.5c0,12.82422 10.14453,23.32422 22.75,24.28125l-12.03125,2.1875h-0.4375l-21.875,5.6875l-18.375,-29.75l-12.03125,7.4375l18.375,29.53125c3.19922,5.14063 9.65234,7.84766 15.53125,6.34375l15.75,-3.9375l5.90625,47.03125l-12.90625,62.5625l13.78125,2.84375l12.03125,-59.0625l39.375,-2.84375l16.84375,39.375l12.90625,-5.46875l-16.84375,-39.59375c-2.29687,-5.35937 -7.76562,-8.58593 -13.5625,-8.3125l4.59375,-1.3125l0.21875,-0.21875h0.21875l4.8125,-1.96875l0.4375,-0.21875l0.21875,-0.21875l3.0625,-1.53125l-6.5625,-12.25l-2.40625,1.3125l-0.65625,0.21875l-3.5,1.53125l-0.4375,0.21875h-0.21875l-4.375,1.3125l4.15625,13.125l-8.09375,0.65625l-0.65625,-5.90625v-42.875l17.0625,-12.6875c1.83203,-1.36718 3.39063,-3.19922 4.375,-5.25l12.90625,-26.6875l-12.6875,-6.125l-12.90625,26.90625l-19.03125,14l-11.375,1.96875c8.53125,-3.85547 14.65625,-12.41406 14.65625,-22.3125c0,-13.45312 -11.04687,-24.5 -24.5,-24.5zM189,27.78125l-14,0.4375c0.05469,2.26953 0.02734,4.56641 0,6.78125h14c0.02734,-2.37891 0.08203,-4.73047 0,-7.21875zM94.5,35c5.87891,0 10.5,4.62109 10.5,10.5c0,5.87891 -4.62109,10.5 -10.5,10.5c-5.87891,0 -10.5,-4.62109 -10.5,-10.5c0,-5.87891 4.62109,-10.5 10.5,-10.5zM174.78125,41.5625l-0.4375,4.59375h0.21875l-1.09375,7.4375v0.65625l13.5625,2.625l0.21875,-1.09375l0.21875,-0.21875v-0.21875l0.875,-7.875v-0.4375l0.4375,-4.59375zM172.15625,60.59375l-1.53125,5.90625v0.4375l-1.96875,5.6875v0.21875l-0.21875,0.21875l3.71875,1.09375l9.40625,3.9375v-0.21875l0.21875,-0.21875v-0.21875l2.1875,-6.5625v-0.21875l0.21875,-0.21875l1.53125,-6.34375zM166.25,78.75l-2.40625,4.59375l-0.21875,0.4375l-2.40625,4.15625h-0.21875l-1.09375,1.75l11.375,8.09375l1.09375,-1.53125l0.4375,-0.4375l3.0625,-5.25l0.21875,-0.21875v-0.21875l2.625,-5.03125zM112,80.9375v44.625l-15.3125,1.3125l-5.25,-42.4375zM155.96875,94.5l-1.3125,1.75l-0.4375,0.4375l-3.0625,2.84375l-0.4375,0.4375l-3.0625,2.625h-0.21875l-0.4375,0.4375l3.71875,4.8125l0.65625,0.65625l3.71875,5.90625l0.65625,-0.65625l4.15625,-3.28125l0.4375,-0.21875l4.59375,-4.59375l1.75,-1.96875z"
        ></path>
      </g>
    </g>
  </g>
</svg>
