<svg
  xmlns="http://www.w3.org/2000/svg"
  x="0px"
  y="0px"
  width="64"
  height="64"
  viewBox="0 0 224 224"
  style="fill: #000000"
>
  <g
    fill="none"
    fill-rule="nonzero"
    stroke="none"
    stroke-width="1"
    stroke-linecap="butt"
    stroke-linejoin="miter"
    stroke-miterlimit="10"
    stroke-dasharray=""
    stroke-dashoffset="0"
    font-family="none"
    font-weight="none"
    font-size="none"
    text-anchor="none"
    style="mix-blend-mode: normal"
  >
    <path d="M0,224v-224h224v224z" fill="none"></path>
    <g fill="#ffffff">
      <g id="compass">
        <path
          d="M112,28c-46.32031,0 -84,37.67969 -84,84c0,46.32032 37.67969,84 84,84c46.32032,0 84,-37.67968 84,-84c0,-46.32031 -37.67968,-84 -84,-84zM104.78125,42.4375c0.08203,0 0.13672,0 0.21875,0v6.5625h14v-6.5625c33.16797,3.25391 59.30859,29.39453 62.5625,62.5625h-6.5625v14h6.5625c-3.25391,33.16797 -29.39453,59.30859 -62.5625,62.5625v-6.5625h-14v6.5625c-33.16797,-3.25391 -59.30859,-29.39453 -62.5625,-62.5625h6.5625v-14h-6.5625c3.25391,-33.11328 29.28516,-59.22656 62.34375,-62.5625zM157.5,66.5l-58.40625,32.59375l-32.59375,58.40625l58.40625,-32.59375zM112,101.5c5.79688,0 10.5,4.70313 10.5,10.5c0,5.79688 -4.70312,10.5 -10.5,10.5c-5.79687,0 -10.5,-4.70312 -10.5,-10.5c0,-5.79687 4.70313,-10.5 10.5,-10.5z"
        ></path>
      </g>
    </g>
  </g>
</svg>
