<svg
  xmlns="http://www.w3.org/2000/svg"
  x="0px"
  y="0px"
  width="64"
  height="64"
  viewBox="0 0 224 224"
  style="fill: #000000"
>
  <g
    fill="none"
    fill-rule="nonzero"
    stroke="none"
    stroke-width="1"
    stroke-linecap="butt"
    stroke-linejoin="miter"
    stroke-miterlimit="10"
    stroke-dasharray=""
    stroke-dashoffset="0"
    font-family="none"
    font-weight="none"
    font-size="none"
    text-anchor="none"
    style="mix-blend-mode: normal"
  >
    <path d="M0,224v-224h224v224z" fill="none"></path>
    <g fill="#ffffff">
      <g id="gloves">
        <path
          d="M119,14c-9.67968,0 -17.71875,6.78125 -20.125,15.75c-2.46093,-1.01172 -5.05859,-1.75 -7.875,-1.75c-11.51172,0 -21,9.48828 -21,21v61.25l-6.125,-6.125c-8.14843,-8.14843 -21.60156,-8.14843 -29.75,0c-8.14843,8.14844 -8.14843,21.60157 0,29.75l47.46875,47.46875c0.79297,0.76563 1.61328,1.47657 2.40625,2.1875v26.46875h98v-29.75c8.28516,-8.77734 14,-20.23437 14,-33.25v-77c0,-11.51172 -9.48828,-21 -21,-21c-2.46093,0 -4.78516,0.51953 -7,1.3125v-1.3125c0,-11.51172 -9.48828,-21 -21,-21c-2.81641,0 -5.41406,0.73828 -7.875,1.75c-2.40625,-8.96875 -10.44531,-15.75 -20.125,-15.75zM119,28c3.96484,0 7,3.03516 7,7v63h14v-49c0,-3.96484 3.03516,-7 7,-7c3.96484,0 7,3.03516 7,7v49h14v-28c0,-3.96484 3.03516,-7 7,-7c3.96484,0 7,3.03516 7,7v77c0,10.39063 -4.42968,19.60547 -11.59375,26.03125l-2.40625,2.1875v20.78125h-70v-19.25l-2.625,-2.1875c-1.36718,-1.06641 -2.57031,-2.13281 -3.71875,-3.28125l-47.6875,-47.25c-2.78906,-2.78906 -2.78906,-7.27343 0,-10.0625c2.78907,-2.78906 7.27344,-2.78906 10.0625,0l0.4375,0.4375l17.5,17.71875l12.03125,12.03125v-95.15625c0,-3.96484 3.03516,-7 7,-7c3.96484,0 7,3.03516 7,7v49h14v-63c0,-3.96484 3.03516,-7 7,-7zM132.5625,112c-4.86718,0.05469 -9.59766,2.65234 -12.03125,7.875l-1.3125,2.84375l-2.84375,0.4375c-11.15625,1.83203 -15.42187,15.88672 -7.21875,23.84375l2.1875,1.96875l-0.4375,2.84375c-1.75,11.40234 9.98047,19.96094 19.90625,14.4375l2.625,-1.3125l2.40625,1.3125c10.0625,5.22266 21.76563,-3.74609 19.6875,-15.09375l-0.65625,-2.84375l2.1875,-1.96875c7.98438,-8.17578 3.30859,-22.12109 -7.875,-23.625l-2.84375,-0.4375l-1.3125,-2.625c-2.57031,-5.14062 -7.60156,-7.71093 -12.46875,-7.65625zM133,133c3.85547,0 7,3.14453 7,7c-0.02734,3.88282 -3.14453,7 -7,7c-3.85547,0 -7,-3.11718 -7,-7c0,-3.85547 3.11719,-7.02734 7,-7z"
        ></path>
      </g>
    </g>
  </g>
</svg>
