<svg
  xmlns="http://www.w3.org/2000/svg"
  x="0px"
  y="0px"
  width="64"
  height="64"
  viewBox="0 0 224 224"
  style="fill: #000000"
>
  <g
    fill="none"
    fill-rule="nonzero"
    stroke="none"
    stroke-width="1"
    stroke-linecap="butt"
    stroke-linejoin="miter"
    stroke-miterlimit="10"
    stroke-dasharray=""
    stroke-dashoffset="0"
    font-family="none"
    font-weight="none"
    font-size="none"
    text-anchor="none"
    style="mix-blend-mode: normal"
  >
    <path d="M0,224v-224h224v224z" fill="none"></path>
    <g fill="#ffffff">
      <g id="helmet">
        <path
          d="M112,35c-34.48047,0 -53.34766,17.96484 -61.90625,35.4375c-7.19141,14.68359 -7.79297,27.01563 -7.875,31.28125c-5.44141,4.21094 -11.29297,10.55469 -13.34375,20.34375c-1.96875,9.29688 -5.60547,27.45313 -7.65625,40.6875c-0.95703,6.125 0.79297,13.04297 5.6875,18.15625c3.66407,3.82813 8.88672,6.58984 15.3125,7.65625c1.55859,0.30078 3.14453,0.4375 4.8125,0.4375c22.99609,0 36.88672,-7 64.96875,-7c28.08203,0 41.09766,7 63,7c5.79688,0 10.30859,-0.875 14,-2.84375c0.60157,-0.32812 1.20313,-0.68359 1.75,-1.09375c4.12891,-2.37891 7.19141,-5.55078 8.96875,-8.75c3.58203,-6.37109 3.28125,-12.6875 3.28125,-12.6875v-0.4375l-0.21875,-0.65625c0,0 -4.8125,-27.50781 -7.875,-40.6875c-2.81641,-12.08593 -9.73437,-17.74609 -13.34375,-20.34375c-0.19141,-4.26562 -0.92968,-16.46093 -8.3125,-31.0625c-8.77734,-17.39062 -27.69922,-35.4375 -61.25,-35.4375zM112,49c28.84766,0 41.45313,13.45313 48.5625,27.5625c7.10938,14.10938 7.4375,28.4375 7.4375,28.4375v4.15625l3.5,1.96875c0,0 7.35547,4.04688 9.625,13.78125c2.02344,8.66797 4.53907,22.09375 6.125,30.84375c-3.39062,-4.29297 -7.46484,-9.16016 -10.71875,-12.90625c-2.54297,-2.95312 -7.38281,-7.35547 -15.75,-8.53125c-8.36718,-1.17578 -21.71093,-1.3125 -48.78125,-1.3125c-26.25,0 -40.00391,0.30078 -48.78125,1.53125c-8.77734,1.23047 -13.80859,4.94922 -16.625,8.09375c-2.59766,2.89844 -6.07031,6.20703 -9.40625,10.28125c1.94141,-10.47266 4.07422,-21.4375 5.46875,-28c1.44922,-6.89062 6.15234,-11.51172 10.0625,-14l3.28125,-2.1875v-3.9375c0,0 -0.30078,-14.19141 6.5625,-28.21875c4.64844,-9.54297 12.19532,-18.64843 25.8125,-23.625c-1.3125,2.98047 1.17578,10.03516 0.65625,11.375c-2.02343,5.14063 -6.5625,8.33984 -8.75,13.34375c-1.72266,3.96484 -0.57422,8.50391 4.59375,7.4375c3.96484,-0.82031 5.33203,-5.35937 9.625,-6.125c3.88282,-0.68359 10.52734,2.59766 13.5625,-0.65625c3.80078,-4.07422 -1.36718,-5.82422 -3.71875,-8.3125c-3.88281,-4.10156 -5.76953,-16.89843 -12.90625,-18.15625c5.76953,-1.69531 12.52344,-2.84375 20.5625,-2.84375zM144.59375,67.8125c-3.14453,0.41016 -5.14062,4.8125 -8.09375,6.125c-1.72266,0.73828 -13.125,2.1875 -10.0625,6.125c2.70703,3.5 6.91797,0.13672 10.5,3.0625c2.26953,1.85938 3.00782,4.32032 5.25,6.34375c2.73438,2.48828 5.82422,4.48438 5.90625,-1.09375c0.02734,-1.77734 -1.91406,-2.84375 -2.1875,-4.59375c-0.49218,-3.22656 -0.57422,-4.07422 0.21875,-6.5625c1.14844,-3.63672 4.53907,-8.12109 -0.21875,-9.40625c-0.49218,-0.13672 -0.875,-0.05468 -1.3125,0zM116.59375,97.34375c-2.92578,0.54688 -4.86718,5.27734 -7.21875,6.78125c-3.85547,2.46094 -8.25781,0.16407 -12.25,2.1875c-1.58593,0.79297 -3.80078,2.95313 -3.28125,5.03125c0.90234,3.58203 4.56641,1.83203 7,2.625c3.63672,1.20313 5.30469,4.64844 7.875,7.21875c2.02344,2.05078 6.28907,5.85157 8.53125,2.84375c2.625,-3.5 -1.50391,-8.06641 -1.3125,-11.8125c0.19141,-3.52734 7.05469,-11.12891 3.9375,-13.78125c-1.20312,-1.01172 -2.29687,-1.28516 -3.28125,-1.09375zM63.65625,103.03125c-3.74609,0.35547 -6.61718,1.85938 -7.21875,7c-0.35547,2.95313 2.40625,22.64063 7,15.75c2.32422,-3.47266 -0.46484,-8.36718 2.84375,-12.25c0.08203,-0.10937 0.13672,-0.13672 0.21875,-0.21875c2.67969,-2.70703 7.90234,-2.40625 9.84375,-5.03125c3.88282,-5.25 -5.85156,-5.14062 -8.75,-5.25c-1.36718,-0.05468 -2.67968,-0.10937 -3.9375,0zM156.1875,106.75c-3.55468,0.08203 -7.71093,4.73047 -9.40625,7.21875c-6.78125,10.00782 3.28125,7.10938 9.84375,8.75c3.47266,0.875 6.64453,3.74609 10.28125,3.9375c14.16407,0.71094 -0.38281,-8.66797 -3.28125,-11.59375c-1.83203,-1.85937 -2.51562,-4.42968 -4.15625,-6.5625c-0.90234,-1.20312 -2.10547,-1.77734 -3.28125,-1.75zM112,147c26.98828,0 40.46875,0.41016 46.8125,1.3125c6.34375,0.90234 4.10157,0.16407 7,3.5c6.125,7.10938 15.83203,19.74219 16.625,20.78125c0,0 0.19141,1.23047 0.21875,1.09375c-0.35547,0.13672 -0.68359,0.32813 -1.09375,0.4375c-0.4375,0.16407 -0.76562,0.30078 -1.53125,0.4375c-1.39453,0.24609 -3.00781,0.4375 -5.03125,0.4375c-18.67578,0 -32.67578,-7 -63,-7c-29.28516,0 -44.05078,6.5625 -63,7c-1.55859,0 -2.92578,-0.05468 -4.15625,-0.21875c-1.83203,-0.32812 -2.57031,-0.98437 -2.84375,-1.3125c-0.35547,-0.4375 -0.32812,-0.90234 0,-1.75c2.57032,-6.58984 9.21484,-13.39843 14.875,-19.6875c2.43359,-2.70703 1.33984,-2.73437 8.3125,-3.71875c6.97266,-0.98437 20.69922,-1.3125 46.8125,-1.3125z"
        ></path>
      </g>
    </g>
  </g>
</svg>
