<svg
  xmlns="http://www.w3.org/2000/svg"
  x="0px"
  y="0px"
  width="64"
  height="64"
  viewBox="0 0 224 224"
  style="fill: #000000"
>
  <g
    fill="none"
    fill-rule="nonzero"
    stroke="none"
    stroke-width="1"
    stroke-linecap="butt"
    stroke-linejoin="miter"
    stroke-miterlimit="10"
    stroke-dasharray=""
    stroke-dashoffset="0"
    font-family="none"
    font-weight="none"
    font-size="none"
    text-anchor="none"
    style="mix-blend-mode: normal"
  >
    <path d="M0,224v-224h224v224z" fill="none"></path>
    <g fill="#ffffff">
      <g id="water-suits">
        <path
          d="M100.625,24.5l-16.1875,25.15625l-3.71875,5.90625l5.6875,3.71875l3.9375,2.625l-17.0625,22.09375h17.71875l11.15625,-14.4375l10.0625,6.5625l-19.46875,14.875h-29.75c-11.51172,0 -21,9.48828 -21,21v28.65625c0,3.41797 1.20313,6.83594 3.5,9.40625l23.1875,25.8125c-2.07812,1.61328 -4.18359,3.22657 -6.125,4.8125c-12.63281,-3.17187 -23.1875,-11.15625 -23.1875,-11.15625l-8.75,10.9375c0,0 18.48438,15.53125 41.5625,15.53125c16.26953,0 32.62109,-3.69141 47.03125,-7.21875c14.41016,-3.52734 27.23438,-6.78125 34.78125,-6.78125c15.17578,0 30.625,12.03125 30.625,12.03125l8.75,-10.71875c0,0 -6.48047,-5.63281 -16.40625,-10.0625c1.88672,-2.54297 3.74609,-5.08593 5.90625,-8.3125c6.17969,-9.24218 13.125,-19.41406 13.125,-30.40625c0,-3.52734 -0.95703,-8.17578 -4.375,-11.375c-3.41797,-3.19922 -8.01172,-4.15625 -13.125,-4.15625c-15.33984,0 -35.02734,9.16016 -56.21875,21.21875l-18.8125,-14.21875c-3.77343,-2.81641 -8.66797,-3.58203 -13.125,-1.96875l-6.34375,2.1875v-14.21875h-14v34.125l9.40625,-3.28125l15.53125,-5.6875l14.4375,10.9375c-10.14453,6.23438 -20.01562,12.76953 -29.3125,19.46875l-24.0625,-26.90625v-28.65625c0,-3.9375 3.03516,-7 7,-7h34.5625l1.75,-1.53125l25.375,-19.46875l6.34375,4.15625l5.6875,3.71875l3.9375,-5.6875l22.96875,-34.34375l-11.59375,-7.875l-19.25,28.65625l-32.8125,-21.21875l12.46875,-19.25zM52.5,35c-13.45312,0 -24.5,11.04688 -24.5,24.5c0,13.45313 11.04688,24.5 24.5,24.5c13.45313,0 24.5,-11.04687 24.5,-24.5c0,-13.45312 -11.04687,-24.5 -24.5,-24.5zM52.5,49c5.87891,0 10.5,4.62109 10.5,10.5c0,5.87891 -4.62109,10.5 -10.5,10.5c-5.87891,0 -10.5,-4.62109 -10.5,-10.5c0,-5.87891 4.62109,-10.5 10.5,-10.5zM178.5,133c3.19922,0 3.74609,0.68359 3.5,0.4375c0.02734,0.10938 0,0.35547 0,1.09375c0,3.14453 -5.00391,14 -10.71875,22.53125c-3.39062,5.05859 -6.34375,8.96875 -8.53125,11.8125c-2.78906,-0.49218 -5.74218,-0.875 -8.75,-0.875c-11.04687,0 -23.87109,3.74609 -38.0625,7.21875c-9.87109,2.40625 -20.39843,4.48438 -30.625,5.6875c12.96094,-9.51562 27.72657,-19.14062 42,-27.34375c21.16407,-12.16797 42.13672,-20.5625 51.1875,-20.5625z"
        ></path>
      </g>
    </g>
  </g>
</svg>
